<svg width="58" height="58" viewBox="0 0 58 58" fill="none" xmlns="http://www.w3.org/2000/svg">
<g filter="url(#filter0_d_1191_788)">
<rect x="14" y="7" width="30" height="30" rx="6" fill="url(#paint0_linear_1191_788)" shape-rendering="crispEdges"/>
</g>
<path d="M29.0002 17.9094C28.3409 17.9229 27.7084 18.1729 27.218 18.6138C26.7276 19.0547 26.412 19.6571 26.3287 20.3113C26.2454 20.9654 26.3999 21.6277 26.764 22.1775C27.1282 22.7273 27.6778 23.1278 28.3127 23.3062V30.9719C28.3127 31.1542 28.3851 31.3291 28.514 31.458C28.643 31.5869 28.8178 31.6594 29.0002 31.6594C29.1825 31.6594 29.3574 31.5869 29.4863 31.458C29.6152 31.3291 29.6877 31.1542 29.6877 30.9719V23.3062C30.3225 23.1278 30.8721 22.7273 31.2363 22.1775C31.6005 21.6277 31.755 20.9654 31.6717 20.3113C31.5883 19.6571 31.2727 19.0547 30.7823 18.6138C30.292 18.1729 29.6595 17.9229 29.0002 17.9094Z" fill="#F66F4D"/>
<path d="M33.9498 14.9531C33.8106 14.8596 33.6419 14.8202 33.4756 14.8424C33.3093 14.8646 33.1569 14.9468 33.047 15.0736C32.9372 15.2004 32.8774 15.3629 32.8791 15.5307C32.8808 15.6984 32.9437 15.8598 33.0561 15.9843C33.726 16.5652 34.2633 17.2832 34.6315 18.0898C34.9997 18.8964 35.1902 19.7727 35.1902 20.6593C35.1902 21.546 34.9997 22.4223 34.6315 23.2289C34.2633 24.0355 33.726 24.7535 33.0561 25.3343C32.9752 25.3886 32.9068 25.4595 32.8554 25.5422C32.804 25.6249 32.7707 25.7176 32.7579 25.8142C32.745 25.9107 32.7527 26.0089 32.7807 26.1022C32.8086 26.1955 32.856 26.2818 32.9198 26.3554C32.9836 26.429 33.0623 26.4882 33.1507 26.5291C33.239 26.57 33.3351 26.5916 33.4325 26.5926C33.5299 26.5935 33.6264 26.5738 33.7156 26.5347C33.8047 26.4955 33.8846 26.4379 33.9498 26.3656C34.766 25.6557 35.4205 24.779 35.8689 23.7946C36.3174 22.8102 36.5494 21.7411 36.5494 20.6593C36.5494 19.5776 36.3174 18.5085 35.8689 17.5241C35.4205 16.5397 34.766 15.663 33.9498 14.9531ZM22.8123 20.6593C22.812 19.7729 23.0021 18.8967 23.3698 18.0902C23.7375 17.2836 24.2742 16.5655 24.9436 15.9843C25.0559 15.8598 25.1189 15.6984 25.1205 15.5307C25.1222 15.3629 25.0625 15.2004 24.9526 15.0736C24.8427 14.9468 24.6903 14.8646 24.524 14.8424C24.3578 14.8202 24.1891 14.8596 24.0498 14.9531C23.2336 15.663 22.5792 16.5397 22.1307 17.5241C21.6823 18.5085 21.4502 19.5776 21.4502 20.6593C21.4502 21.7411 21.6823 22.8102 22.1307 23.7946C22.5792 24.779 23.2336 25.6557 24.0498 26.3656C24.1891 26.4591 24.3578 26.4985 24.524 26.4763C24.6903 26.4541 24.8427 26.3719 24.9526 26.2451C25.0625 26.1183 25.1222 25.9558 25.1205 25.788C25.1189 25.6203 25.0559 25.4589 24.9436 25.3343C24.2742 24.7532 23.7375 24.0351 23.3698 23.2285C23.0021 22.4219 22.812 21.5458 22.8123 20.6593Z" fill="#F66F4D"/>
<path d="M36.3908 12.5125C36.3231 12.4515 36.244 12.4045 36.1581 12.3742C36.0722 12.3438 35.9812 12.3306 35.8902 12.3354C35.7993 12.3402 35.7101 12.3628 35.6279 12.4021C35.5457 12.4413 35.472 12.4963 35.4111 12.5641C35.3501 12.6318 35.3031 12.7108 35.2727 12.7967C35.2424 12.8826 35.2292 12.9736 35.234 13.0646C35.2388 13.1555 35.2614 13.2447 35.3006 13.3269C35.3399 13.4091 35.3949 13.4828 35.4626 13.5437C36.4529 14.4458 37.244 15.5445 37.7853 16.7698C38.3266 17.9951 38.6062 19.3199 38.6062 20.6594C38.6062 21.9989 38.3266 23.3236 37.7853 24.5489C37.244 25.7742 36.4529 26.873 35.4626 27.775C35.3949 27.8359 35.3399 27.9096 35.3006 27.9918C35.2614 28.074 35.2388 28.1632 35.234 28.2542C35.2292 28.3451 35.2424 28.4362 35.2727 28.522C35.3031 28.6079 35.3501 28.687 35.4111 28.7547C35.472 28.8224 35.5457 28.8774 35.6279 28.9167C35.7101 28.9559 35.7993 28.9786 35.8902 28.9834C35.9812 28.9881 36.0722 28.975 36.1581 28.9446C36.244 28.9142 36.3231 28.8672 36.3908 28.8062C37.5217 27.7754 38.4252 26.5199 39.0433 25.1201C39.6615 23.7202 39.9808 22.2068 39.9808 20.6766C39.9808 19.1463 39.6615 17.6329 39.0433 16.233C38.4252 14.8332 37.5217 13.5777 36.3908 12.5469V12.5125ZM19.3752 20.6594C19.3797 19.3188 19.6632 17.9938 20.2076 16.7688C20.7521 15.5437 21.5456 14.4454 22.5376 13.5437C22.6744 13.4207 22.7567 13.2483 22.7663 13.0646C22.776 12.8808 22.7123 12.7008 22.5892 12.5641C22.4661 12.4273 22.2938 12.345 22.11 12.3354C21.9263 12.3257 21.7463 12.3894 21.6095 12.5125C20.4786 13.5433 19.5751 14.7988 18.957 16.1986C18.3388 17.5985 18.0195 19.1119 18.0195 20.6422C18.0195 22.1724 18.3388 23.6859 18.957 25.0857C19.5751 26.4856 20.4786 27.741 21.6095 28.7719C21.6772 28.8328 21.7563 28.8798 21.8422 28.9102C21.9281 28.9406 22.0191 28.9538 22.11 28.949C22.201 28.9442 22.2902 28.9215 22.3724 28.8823C22.4546 28.8431 22.5283 28.788 22.5892 28.7203C22.6502 28.6526 22.6972 28.5735 22.7276 28.4877C22.7579 28.4018 22.7711 28.3108 22.7663 28.2198C22.7615 28.1288 22.7389 28.0397 22.6996 27.9575C22.6604 27.8752 22.6054 27.8016 22.5376 27.7406C21.5498 26.8429 20.7588 25.7501 20.2145 24.5313C19.6702 23.3125 19.3844 21.9941 19.3752 20.6594Z" fill="#F66F4D"/>
<defs>
<filter id="filter0_d_1191_788" x="0" y="0" width="58" height="58" filterUnits="userSpaceOnUse" color-interpolation-filters="sRGB">
<feFlood flood-opacity="0" result="BackgroundImageFix"/>
<feColorMatrix in="SourceAlpha" type="matrix" values="0 0 0 0 0 0 0 0 0 0 0 0 0 0 0 0 0 0 127 0" result="hardAlpha"/>
<feMorphology radius="5" operator="erode" in="SourceAlpha" result="effect1_dropShadow_1191_788"/>
<feOffset dy="7"/>
<feGaussianBlur stdDeviation="9.5"/>
<feComposite in2="hardAlpha" operator="out"/>
<feColorMatrix type="matrix" values="0 0 0 0 0.570718 0 0 0 0 0.389126 0 0 0 0 0 0 0 0 0.11 0"/>
<feBlend mode="normal" in2="BackgroundImageFix" result="effect1_dropShadow_1191_788"/>
<feBlend mode="normal" in="SourceGraphic" in2="effect1_dropShadow_1191_788" result="shape"/>
</filter>
<linearGradient id="paint0_linear_1191_788" x1="29" y1="7" x2="45" y2="73" gradientUnits="userSpaceOnUse">
<stop stop-color="white"/>
<stop offset="1" stop-color="white" stop-opacity="0"/>
</linearGradient>
</defs>
</svg>
