<svg width="10" height="13" viewBox="0 0 10 13" fill="none" xmlns="http://www.w3.org/2000/svg">
<path d="M9.90125 5.68361C9.90125 5.02775 9.77349 4.37831 9.52526 3.77238C9.27703 3.16645 8.9132 2.61588 8.45453 2.15212C7.99587 1.68836 7.45135 1.32048 6.85208 1.0695C6.2528 0.818512 5.61051 0.689331 4.96185 0.689331C4.3132 0.689331 3.67091 0.818512 3.07163 1.0695C2.47236 1.32048 1.92784 1.68836 1.46918 2.15212C1.01051 2.61588 0.646678 3.16645 0.39845 3.77238C0.150222 4.37831 0.0224609 5.02775 0.0224609 5.68361C0.0224609 6.67319 0.311768 7.59356 0.80218 8.36981H0.796535C2.46182 11.0061 4.96185 12.7634 4.96185 12.7634L9.12718 8.36981H9.12224C9.63058 7.56814 9.90093 6.6359 9.90125 5.68361ZM4.96185 7.82401C4.40042 7.82401 3.86198 7.5985 3.46499 7.1971C3.068 6.7957 2.84497 6.25128 2.84497 5.68361C2.84497 5.11594 3.068 4.57152 3.46499 4.17011C3.86198 3.76871 4.40042 3.5432 4.96185 3.5432C5.52329 3.5432 6.06173 3.76871 6.45872 4.17011C6.85571 4.57152 7.07874 5.11594 7.07874 5.68361C7.07874 6.25128 6.85571 6.7957 6.45872 7.1971C6.06173 7.5985 5.52329 7.82401 4.96185 7.82401Z" fill="#2D3134"/>
</svg>
